<?xml version="1.0" standalone="no"?>
<!DOCTYPE svg PUBLIC "-//W3C//DTD SVG 20010904//EN"
 "http://www.w3.org/TR/2001/REC-SVG-20010904/DTD/svg10.dtd">
<svg version="1.0" xmlns="http://www.w3.org/2000/svg"
 width="538.000000pt" height="572.000000pt" viewBox="0 0 538.000000 572.000000"
 preserveAspectRatio="xMidYMid meet">
<metadata>
Created by potrace 1.16, written by Peter Selinger 2001-2019
</metadata>
<g transform="translate(0.000000,572.000000) scale(0.100000,-0.100000)"
fill="#000000" stroke="none">
<path d="M2407 5289 c-38 -4 -87 -11 -109 -14 l-40 -7 97 -52 c385 -207 673
-584 773 -1012 l26 -110 46 -26 c117 -66 279 -222 363 -351 17 -26 34 -46 38
-45 5 2 118 53 253 113 152 68 246 115 246 124 0 8 3 11 7 8 3 -4 13 -1 21 6
13 9 14 9 8 0 -5 -9 -2 -11 8 -7 9 3 13 11 9 18 -4 7 -1 6 9 -2 12 -10 17 -10
27 1 6 8 9 16 6 18 -2 3 5 5 16 6 14 1 18 -2 12 -10 -4 -7 4 0 18 16 15 18 26
24 26 16 1 -8 6 -45 12 -84 26 -167 7 -406 -46 -595 -55 -198 -128 -347 -252
-520 -57 -79 -66 -96 -52 -102 9 -4 187 -37 396 -73 209 -36 387 -68 396 -71
13 -4 20 12 37 78 44 178 57 293 56 518 0 180 -3 236 -23 344 -126 708 -550
1282 -1181 1597 -209 105 -490 190 -720 219 -96 11 -381 11 -483 -1z"/>
<path d="M2090 5231 c-173 -45 -262 -79 -417 -156 -241 -119 -406 -239 -594
-432 -333 -340 -537 -754 -604 -1223 -19 -138 -19 -435 0 -584 48 -365 122
-592 268 -819 l50 -79 26 34 c14 18 44 52 67 76 l41 42 90 0 c232 0 456 -116
722 -375 143 -139 391 -432 391 -462 0 -10 -234 -173 -247 -173 -4 0 -34 50
-67 110 -183 342 -395 566 -640 680 -81 38 -191 70 -237 70 -16 0 -6 -8 34
-24 191 -79 430 -318 656 -655 74 -110 211 -346 211 -363 0 -5 81 53 180 127
l180 136 56 -88 c69 -106 200 -335 244 -424 l33 -66 251 186 c138 103 256 190
263 194 6 4 19 -6 31 -26 10 -17 52 -86 92 -152 40 -66 105 -181 144 -256 l72
-137 804 599 c442 329 810 605 817 612 12 12 -36 64 -304 334 -421 425 -638
598 -938 750 -308 156 -595 237 -930 264 -261 20 -527 0 -852 -66 -257 -53
-282 -67 -65 -38 186 24 612 24 787 0 479 -68 916 -265 1335 -600 220 -177
645 -600 645 -642 0 -8 -276 -203 -614 -434 l-613 -419 -107 211 c-172 341
-291 535 -451 736 -210 264 -412 432 -662 551 -176 83 -345 123 -575 136
l-133 7 0 32 c0 36 -12 50 -53 60 -15 4 -27 10 -27 14 0 4 -26 20 -57 36 -32
17 -60 32 -63 35 -3 3 -36 21 -75 40 -38 19 -72 38 -75 42 -3 3 -25 14 -50 24
-25 9 -54 25 -65 34 -27 23 -85 52 -85 43 0 -5 -4 -2 -9 6 -7 10 1 35 24 80
104 208 344 490 417 492 35 0 86 -9 107 -21 26 -13 35 0 58 85 11 39 37 111
57 161 20 51 36 95 36 100 0 5 -60 146 -134 314 l-134 305 52 27 c58 31 193
77 311 108 44 11 86 27 94 35 16 16 63 100 156 280 32 61 61 112 65 115 9 6
62 117 60 126 -1 4 2 10 7 13 12 8 137 260 132 265 -2 2 -22 6 -44 9 -27 4
-75 -4 -145 -22z m-480 -2921 c356 -86 800 -459 1239 -1044 62 -82 109 -152
104 -156 -23 -20 -353 -240 -360 -240 -4 0 -32 47 -61 104 -300 591 -685 981
-1102 1114 -121 38 -199 53 -329 61 l-104 6 55 36 c67 45 143 84 223 115 80
31 215 32 335 4z"/>
<path d="M3326 2329 c-229 -34 -405 -257 -367 -464 32 -173 166 -308 342 -346
77 -17 212 -6 279 22 152 63 243 172 271 325 21 112 -24 244 -113 333 -105
105 -258 153 -412 130z m233 -243 c15 -8 36 -27 45 -41 11 -17 24 -25 39 -23
14 2 23 -3 25 -14 2 -13 -3 -18 -17 -18 -17 0 -20 -5 -15 -28 8 -41 -19 -98
-56 -117 -37 -19 -46 -15 -55 26 -6 25 -3 34 14 45 22 16 29 44 11 44 -5 0
-30 -5 -54 -12 -43 -11 -44 -12 -49 -61 -5 -61 -32 -98 -83 -115 -57 -19 -101
-7 -149 41 -30 31 -47 40 -67 38 -36 -3 -38 24 -3 33 22 6 25 12 25 51 0 51
36 100 81 110 24 6 28 3 39 -31 10 -31 10 -39 0 -42 -17 -6 -50 -40 -50 -52 0
-11 28 -6 90 15 25 9 36 19 38 36 7 55 25 91 56 110 37 23 96 25 135 5z"/>
</g>
</svg>
